<svg xmlns="http://www.w3.org/2000/svg" xmlns:xlink="http://www.w3.org/1999/xlink" width="500" zoomAndPan="magnify" viewBox="0 0 375 374.999991" height="500" preserveAspectRatio="xMidYMid meet" version="1.0"><defs><clipPath id="8f5feb631e"><path d="M 12 42.789062 L 363 42.789062 L 363 332.289062 L 12 332.289062 Z M 12 42.789062 " clip-rule="nonzero"/></clipPath><clipPath id="94acc936b8"><path d="M 96.558594 150.324219 L 278.808594 150.324219 L 278.808594 332.574219 L 96.558594 332.574219 Z M 96.558594 150.324219 " clip-rule="nonzero"/></clipPath><clipPath id="afaba8f61d"><path d="M 139 269 L 236 269 L 236 300.796875 L 139 300.796875 Z M 139 269 " clip-rule="nonzero"/></clipPath><clipPath id="1f14ab0871"><path d="M 132 264.796875 L 147 264.796875 L 147 275 L 132 275 Z M 132 264.796875 " clip-rule="nonzero"/></clipPath><clipPath id="4acbeaefe0"><path d="M 228 264.796875 L 242.90625 264.796875 L 242.90625 275 L 228 275 Z M 228 264.796875 " clip-rule="nonzero"/></clipPath><clipPath id="79202abca0"><path d="M 131.90625 200 L 173.90625 200 L 173.90625 255.480469 L 131.90625 255.480469 Z M 131.90625 200 " clip-rule="nonzero"/></clipPath><clipPath id="2560a321db"><path d="M 201.007812 200.027344 L 243.007812 200.027344 L 243.007812 255.527344 L 201.007812 255.527344 Z M 201.007812 200.027344 " clip-rule="nonzero"/></clipPath></defs><rect x="-37.5" width="450" fill="#ffffff" y="-37.499999" height="449.999989" fill-opacity="1"/><rect x="-37.5" width="450" fill="#000000" y="-37.499999" height="449.999989" fill-opacity="1"/><g clip-path="url(#8f5feb631e)"><path fill="#ffffff" d="M 346.214844 200.167969 C 345.324219 113.03125 274.191406 42.789062 186.609375 42.789062 C 99.03125 42.789062 27.898438 113.476562 27.007812 200.613281 C 18.5625 207.28125 12.335938 215.730469 12.335938 226.398438 L 12.335938 278.414062 C 12.335938 297.53125 32.34375 309.089844 47.902344 315.757812 L 47.902344 320.648438 C 47.902344 326.871094 55.015625 332.207031 63.464844 332.207031 L 67.910156 332.207031 C 76.355469 332.207031 83.46875 327.316406 83.46875 320.648438 L 83.46875 185.941406 C 83.46875 179.71875 76.355469 174.382812 67.910156 174.382812 L 63.464844 174.382812 C 60.796875 174.382812 58.128906 174.828125 55.90625 176.160156 C 68.355469 114.8125 122.59375 68.574219 187.5 68.574219 C 252.40625 68.574219 306.644531 114.8125 319.09375 176.160156 C 316.871094 175.273438 314.203125 174.382812 311.535156 174.382812 L 307.089844 174.382812 C 298.644531 174.382812 291.53125 179.273438 291.53125 185.941406 L 291.53125 320.648438 C 291.53125 326.871094 298.644531 332.207031 307.089844 332.207031 L 311.535156 332.207031 C 319.984375 332.207031 327.097656 327.316406 327.097656 320.648438 L 327.097656 315.3125 C 342.65625 308.644531 362.664062 297.085938 362.664062 277.96875 L 362.664062 225.953125 C 361.328125 215.285156 354.660156 206.835938 346.214844 200.167969 Z M 346.214844 200.167969 " fill-opacity="1" fill-rule="nonzero"/></g><g clip-path="url(#94acc936b8)"><path fill="#ffffff" d="M 187.492188 332.199219 C 163.203125 332.199219 140.367188 322.738281 123.191406 305.5625 C 106.015625 288.386719 96.558594 265.550781 96.558594 241.261719 C 96.558594 216.972656 106.015625 194.136719 123.191406 176.960938 C 140.367188 159.785156 163.203125 150.324219 187.492188 150.324219 C 211.785156 150.324219 234.621094 159.785156 251.796875 176.960938 C 268.972656 194.136719 278.429688 216.972656 278.429688 241.261719 C 278.429688 254.789062 274.636719 267.335938 274.464844 267.90625 C 272.949219 272.863281 270.996094 277.71875 268.65625 282.347656 L 277.566406 327.40625 C 277.742188 328.292969 277.46875 329.210938 276.835938 329.859375 C 276.199219 330.507812 275.289062 330.800781 274.398438 330.644531 L 228.253906 322.554688 C 223.375 325.011719 218.25 327.03125 213.015625 328.5625 C 212.5 328.714844 200.386719 332.199219 187.492188 332.199219 Z M 187.492188 332.199219 " fill-opacity="1" fill-rule="nonzero"/></g><g clip-path="url(#afaba8f61d)"><path fill="#000000" d="M 234.128906 269.886719 C 227.675781 276.675781 220.320312 281.691406 212.359375 285.019531 C 204.402344 288.351562 195.945312 289.972656 187.4375 290 C 178.933594 289.972656 170.460938 288.359375 162.515625 285.019531 C 154.570312 281.679688 147.199219 276.683594 140.742188 269.890625 L 140.742188 269.886719 C 140.628906 269.765625 140.492188 269.695312 140.332031 269.675781 C 140.167969 269.652344 140.019531 269.683594 139.878906 269.769531 C 139.738281 269.855469 139.640625 269.972656 139.585938 270.128906 C 139.53125 270.28125 139.53125 270.433594 139.585938 270.585938 C 142.800781 279.714844 149.855469 287.558594 158.4375 292.789062 C 167.054688 298.0625 177.277344 300.785156 187.441406 300.792969 C 197.601562 300.800781 207.824219 298.0625 216.4375 292.789062 C 225.019531 287.554688 232.078125 279.71875 235.292969 270.585938 C 235.347656 270.433594 235.347656 270.28125 235.292969 270.125 C 235.238281 269.972656 235.140625 269.855469 235 269.769531 C 234.859375 269.683594 234.710938 269.652344 234.546875 269.675781 C 234.382812 269.695312 234.246094 269.769531 234.136719 269.886719 Z M 234.128906 269.886719 " fill-opacity="1" fill-rule="nonzero"/></g><g clip-path="url(#1f14ab0871)"><path fill="#000000" d="M 143.765625 268.03125 C 144.402344 267.875 145.0625 267.769531 145.773438 267.515625 L 145.871094 267.484375 C 146.160156 267.378906 146.316406 267.175781 146.347656 266.875 C 146.375 266.570312 146.261719 266.34375 145.996094 266.1875 C 145.328125 265.800781 144.625 265.488281 143.886719 265.246094 C 143.132812 265.105469 142.363281 264.867188 141.5625 264.886719 C 139.960938 264.796875 138.28125 265.222656 136.785156 265.980469 C 135.261719 266.773438 134.070312 267.910156 133.214844 269.394531 C 132.402344 270.8125 131.972656 272.363281 132.15625 274.019531 C 132.191406 274.316406 132.347656 274.511719 132.632812 274.609375 C 132.914062 274.707031 133.160156 274.652344 133.371094 274.441406 L 133.472656 274.335938 C 134.433594 273.367188 135.292969 272.425781 136.171875 271.683594 C 136.996094 270.953125 137.890625 270.324219 138.855469 269.792969 C 139.800781 269.3125 140.792969 268.839844 141.953125 268.535156 C 142.519531 268.316406 143.140625 268.234375 143.765625 268.03125 Z M 143.765625 268.03125 " fill-opacity="1" fill-rule="nonzero"/></g><g clip-path="url(#4acbeaefe0)"><path fill="#000000" d="M 241.585938 269.394531 C 240.730469 267.910156 239.539062 266.773438 238.015625 265.980469 C 236.515625 265.222656 234.839844 264.796875 233.238281 264.886719 C 232.433594 264.867188 231.664062 265.105469 230.910156 265.246094 C 230.175781 265.488281 229.472656 265.800781 228.800781 266.1875 C 228.539062 266.34375 228.421875 266.574219 228.453125 266.875 C 228.480469 267.175781 228.640625 267.378906 228.929688 267.484375 L 229.027344 267.515625 C 229.734375 267.769531 230.394531 267.875 231.03125 268.03125 C 231.65625 268.234375 232.277344 268.316406 232.839844 268.535156 C 233.996094 268.839844 234.984375 269.3125 235.9375 269.792969 C 236.902344 270.324219 237.796875 270.953125 238.621094 271.683594 C 239.503906 272.425781 240.363281 273.367188 241.320312 274.335938 L 241.421875 274.441406 C 241.632812 274.652344 241.878906 274.707031 242.160156 274.609375 C 242.445312 274.511719 242.601562 274.316406 242.636719 274.019531 C 242.824219 272.363281 242.398438 270.8125 241.585938 269.394531 Z M 241.585938 269.394531 " fill-opacity="1" fill-rule="nonzero"/></g><g clip-path="url(#79202abca0)"><path fill="#000000" d="M 135.660156 255.445312 C 136.882812 255.445312 138.28125 254.925781 139.722656 253.929688 L 170.804688 232.859375 C 172.816406 231.519531 173.90625 229.65625 173.90625 227.710938 C 173.90625 225.761719 172.816406 223.902344 170.804688 222.5625 L 139.765625 201.488281 C 138.324219 200.492188 136.882812 200.019531 135.660156 200.019531 C 133.347656 200.019531 131.90625 201.878906 131.90625 204.949219 L 131.90625 250.511719 C 131.90625 253.585938 133.347656 255.445312 135.660156 255.445312 Z M 135.660156 255.445312 " fill-opacity="1" fill-rule="nonzero"/></g><g clip-path="url(#2560a321db)"><path fill="#000000" d="M 239.253906 200.066406 C 238.03125 200.066406 236.636719 200.585938 235.195312 201.578125 L 204.109375 222.652344 C 202.101562 223.992188 201.007812 225.851562 201.007812 227.800781 C 201.007812 229.746094 202.101562 231.609375 204.109375 232.949219 L 235.152344 254.023438 C 236.589844 255.015625 238.03125 255.492188 239.253906 255.492188 C 241.570312 255.492188 243.007812 253.632812 243.007812 250.558594 L 243.007812 204.996094 C 243.007812 201.925781 241.570312 200.066406 239.253906 200.066406 Z M 239.253906 200.066406 " fill-opacity="1" fill-rule="nonzero"/></g></svg>