<svg width="179" height="100" viewBox="0 0 179 100" fill="none" xmlns="http://www.w3.org/2000/svg">
<mask id="mask0_371_1005" style="mask-type:luminance" maskUnits="userSpaceOnUse" x="64" y="10" width="51" height="42">
<path d="M64.4399 10H114.502V51.0714H64.4399V10Z" fill="white"/>
</mask>
<g mask="url(#mask0_371_1005)">
<path d="M112.155 32.4126C112.028 20.0037 101.873 10 89.3712 10C76.8691 10 66.7146 20.067 66.5878 32.4758C65.3814 33.4263 64.4939 34.628 64.4939 36.1477V43.5565C64.4939 46.2779 67.3486 47.9241 69.5712 48.8746V49.5703C69.5712 50.4576 70.5855 51.2165 71.7919 51.2165H72.4258C73.6322 51.2165 74.6484 50.5208 74.6484 49.5703V30.3869C74.6484 29.4996 73.6322 28.7407 72.4258 28.7407H71.7919C71.4115 28.7407 71.0293 28.8039 70.7123 28.9937C72.4892 20.2567 80.2328 13.6719 89.498 13.6719C98.7649 13.6719 106.507 20.2567 108.284 28.9937C107.967 28.8672 107.586 28.7407 107.204 28.7407H106.57C105.364 28.7407 104.349 29.4364 104.349 30.3869V49.5703C104.349 50.4576 105.364 51.2165 106.57 51.2165H107.204C108.41 51.2165 109.427 50.5208 109.427 49.5703V48.8114C111.647 47.8609 114.504 46.2147 114.504 43.4933V36.0844C114.314 34.5647 113.361 33.3631 112.155 32.4126Z" fill="white"/>
</g>
<mask id="mask1_371_1005" style="mask-type:luminance" maskUnits="userSpaceOnUse" x="76" y="25" width="27" height="27">
<path d="M76.5168 25.3143H102.627V51.3858H76.5168V25.3143Z" fill="white"/>
</mask>
<g mask="url(#mask1_371_1005)">
<path d="M89.4999 51.2183C86.0318 51.2183 82.7707 49.8716 80.3187 47.4256C77.8668 44.9795 76.5168 41.7262 76.5168 38.2663C76.5168 34.8065 77.8668 31.555 80.3187 29.109C82.7707 26.6629 86.0318 25.3143 89.4999 25.3143C92.9681 25.3143 96.2274 26.6629 98.6793 29.109C101.133 31.555 102.483 34.8065 102.483 38.2663C102.483 40.1934 101.94 41.981 101.916 42.0628C101.7 42.7678 101.422 43.4598 101.086 44.1183L102.36 50.5357C102.384 50.6622 102.345 50.7942 102.256 50.8854C102.164 50.9784 102.034 51.0193 101.907 50.997L95.3193 49.8456C94.6219 50.1953 93.891 50.4836 93.1433 50.7012C93.0706 50.7236 91.3403 51.2183 89.4999 51.2183Z" fill="white"/>
</g>
<mask id="mask2_371_1005" style="mask-type:luminance" maskUnits="userSpaceOnUse" x="82" y="41" width="15" height="6">
<path d="M82.5786 41.9048H96.4213V46.6183H82.5786V41.9048Z" fill="white"/>
</mask>
<g mask="url(#mask2_371_1005)">
<path d="M96.1751 42.3475C95.2521 43.3222 94.2005 44.0402 93.0631 44.5183C91.9257 44.9963 90.7175 45.2289 89.5018 45.2326C88.2879 45.2289 87.0759 44.9963 85.9404 44.5183C84.8049 44.0384 83.7514 43.3222 82.8303 42.3494V42.3475C82.793 42.3085 82.752 42.3029 82.7054 42.3308C82.6606 42.3587 82.6457 42.3978 82.6643 42.448C83.123 43.7575 84.1318 44.8829 85.3587 45.6325C86.5893 46.3877 88.0511 46.7783 89.5036 46.7802C90.9543 46.7802 92.4161 46.3877 93.6467 45.6325C94.8736 44.881 95.8824 43.7575 96.3411 42.448C96.3597 42.3978 96.3448 42.3587 96.3 42.3308C96.2534 42.3029 96.2124 42.3085 96.1751 42.3475Z" fill="#161616"/>
</g>
<mask id="mask3_371_1005" style="mask-type:luminance" maskUnits="userSpaceOnUse" x="81" y="41" width="4" height="3">
<path d="M81.5625 41.6183H84.0107V43.3333H81.5625V41.6183Z" fill="white"/>
</mask>
<g mask="url(#mask3_371_1005)">
<path d="M83.2612 42.0815C83.3526 42.0592 83.4477 42.0443 83.5484 42.009L83.5633 42.0034C83.6043 41.9885 83.6267 41.9587 83.6304 41.916C83.6341 41.8732 83.6192 41.8397 83.5801 41.8174C83.485 41.7616 83.3843 41.7169 83.2799 41.6835C83.1717 41.663 83.0617 41.6276 82.9461 41.6314C82.7186 41.6183 82.4781 41.6797 82.2637 41.7876C82.0455 41.9011 81.8758 42.0648 81.7546 42.2768C81.639 42.4814 81.5775 42.7028 81.6036 42.9409C81.6073 42.9837 81.6297 43.0116 81.6707 43.0246C81.7117 43.0395 81.7472 43.032 81.777 43.0004L81.7901 42.9855C81.928 42.8479 82.0511 42.7121 82.176 42.6061C82.2954 42.5019 82.4222 42.4108 82.5601 42.3345C82.6962 42.2657 82.838 42.1987 83.0039 42.1541C83.0841 42.1224 83.1736 42.1113 83.2612 42.0815Z" fill="#161616"/>
</g>
<mask id="mask4_371_1005" style="mask-type:luminance" maskUnits="userSpaceOnUse" x="94" y="41" width="4" height="3">
<path d="M94.9893 41.6183H97.3144V43.3333H94.9893V41.6183Z" fill="white"/>
</mask>
<g mask="url(#mask4_371_1005)">
<path d="M97.2399 42.2768C97.1187 42.0648 96.9471 41.9011 96.7308 41.7876C96.5164 41.6797 96.2759 41.6183 96.0465 41.6314C95.9328 41.6276 95.8228 41.663 95.7146 41.6835C95.6102 41.7169 95.5095 41.7616 95.4126 41.8174C95.3753 41.8397 95.3585 41.8732 95.3641 41.916C95.3678 41.9606 95.3902 41.9885 95.4312 42.0034L95.4461 42.009C95.5468 42.0443 95.6419 42.0592 95.7314 42.0815C95.8209 42.1113 95.9104 42.1224 95.9906 42.1541C96.1565 42.1987 96.2964 42.2657 96.4325 42.3345C96.5705 42.4108 96.6991 42.5019 96.8166 42.6061C96.9434 42.7121 97.0665 42.8479 97.2026 42.9855L97.2175 43.0004C97.2473 43.032 97.2827 43.0395 97.3219 43.0246C97.3629 43.0116 97.3853 42.9837 97.3909 42.9409C97.417 42.7028 97.3555 42.4814 97.2399 42.2768Z" fill="#161616"/>
</g>
<mask id="mask5_371_1005" style="mask-type:luminance" maskUnits="userSpaceOnUse" x="81" y="32" width="7" height="9">
<path d="M81.5625 32.3865H87.6485V40.2436H81.5625V32.3865Z" fill="white"/>
</mask>
<g mask="url(#mask5_371_1005)">
<path d="M82.0958 40.2903C82.2673 40.2903 82.465 40.2159 82.6701 40.0745L87.0705 37.0723C87.3558 36.8807 87.5087 36.6147 87.5087 36.3375C87.5087 36.0604 87.3558 35.7962 87.0705 35.6046L82.6757 32.6005C82.4724 32.4592 82.2673 32.3922 82.0958 32.3922C81.7676 32.3922 81.5625 32.6563 81.5625 33.0953V39.5872C81.5625 40.0261 81.7676 40.2903 82.0958 40.2903Z" fill="#161616"/>
</g>
<mask id="mask6_371_1005" style="mask-type:luminance" maskUnits="userSpaceOnUse" x="91" y="32" width="7" height="9">
<path d="M91.3367 32.4368H97.4227V40.2939H91.3367V32.4368Z" fill="white"/>
</mask>
<g mask="url(#mask6_371_1005)">
<path d="M96.8913 32.3921C96.7179 32.3921 96.5203 32.4646 96.317 32.6079L91.9166 35.6101C91.6313 35.8017 91.4766 36.0658 91.4766 36.3448C91.4766 36.622 91.6313 36.8861 91.9166 37.0777L96.3114 40.08C96.5147 40.2232 96.7179 40.2902 96.8913 40.2902C97.2195 40.2902 97.4227 40.026 97.4227 39.587V33.0952C97.4227 32.6562 97.2195 32.3921 96.8913 32.3921Z" fill="#161616"/>
</g>
<path d="M28.0863 83.4562L28.0564 72.2955L22.5671 81.4919H20.6279L15.161 72.5336V83.4562H11.1111V64.855H14.6836L21.6646 76.41L28.5412 64.855H32.0839L32.1361 83.4562H28.0863Z" fill="white"/>
<path d="M48.4359 69.1555V83.4561H44.4979V81.7522C43.946 82.3735 43.2859 82.8497 42.5215 83.1808C41.7607 83.5082 40.9347 83.6719 40.0453 83.6719C38.1602 83.6719 36.6667 83.1325 35.5628 82.0499C34.4627 80.9691 33.9146 79.3639 33.9146 77.2359V69.1555H38.0763V76.6258C38.0763 78.9286 39.0422 80.0781 40.9776 80.0781C41.9714 80.0781 42.7695 79.7563 43.3717 79.1109C43.9777 78.4673 44.2816 77.5037 44.2816 76.224V69.1555H48.4359Z" fill="white"/>
<path d="M54.8588 83.672C53.6655 83.672 52.4982 83.525 51.3608 83.233C50.2272 82.9409 49.321 82.5708 48.646 82.1243L50.0332 79.1482C50.6747 79.5555 51.4466 79.8885 52.3528 80.1452C53.2571 80.4037 54.1447 80.5321 55.0154 80.5321C56.7756 80.5321 57.6557 80.0987 57.6557 79.23C57.6557 78.8245 57.4133 78.5306 56.9322 78.352C56.4549 78.1735 55.7184 78.0228 54.7245 77.8982C53.5499 77.7252 52.5803 77.5243 51.8158 77.2955C51.055 77.063 50.3931 76.6537 49.8319 76.0678C49.2744 75.4837 48.9965 74.6504 48.9965 73.5678C48.9965 72.6656 49.2576 71.8639 49.7797 71.1645C50.3055 70.4651 51.07 69.922 52.0694 69.5351C53.0725 69.1444 54.2584 68.9473 55.627 68.9473C56.6413 68.9473 57.6501 69.0589 58.6551 69.2821C59.6582 69.5016 60.4898 69.8066 61.1462 70.1973L59.7589 73.1437C58.4947 72.435 57.1187 72.0797 55.627 72.0797C54.7413 72.0797 54.0757 72.2043 53.6282 72.4517C53.1844 72.701 52.9644 73.0209 52.9644 73.4116C52.9644 73.8543 53.203 74.163 53.6804 74.3416C54.1614 74.5202 54.9278 74.6895 55.9775 74.8476C57.1448 75.041 58.1032 75.2493 58.849 75.4726C59.5986 75.6921 60.2474 76.0938 60.7956 76.6779C61.3475 77.2639 61.6235 78.0805 61.6235 79.1258C61.6235 80.0094 61.3569 80.7981 60.8255 81.4919C60.2922 82.182 59.5147 82.7177 58.491 83.0991C57.4711 83.4804 56.261 83.672 54.8588 83.672Z" fill="white"/>
<path d="M61.9141 69.1556H66.0684V83.4562H61.9141V69.1556ZM63.9876 67.1616C63.2268 67.1616 62.604 66.9421 62.123 66.4993C61.6456 66.0585 61.407 65.5098 61.407 64.855C61.407 64.1965 61.6456 63.6459 62.123 63.2032C62.604 62.7624 63.2268 62.541 63.9876 62.541C64.752 62.541 65.3748 62.7549 65.8521 63.1809C66.3332 63.6031 66.5756 64.1333 66.5756 64.7732C66.5756 65.4633 66.3332 66.0343 65.8521 66.4845C65.3748 66.9365 64.752 67.1616 63.9876 67.1616Z" fill="white"/>
<path d="M76.8862 83.7761C74.9862 83.7761 73.2689 83.365 71.7325 82.541C70.1961 81.7188 68.9878 80.5748 68.1077 79.1109C67.2276 77.6489 66.7876 75.9971 66.7876 74.1556C66.7876 72.3103 67.2276 70.6585 68.1077 69.2002C68.9878 67.7382 70.1961 66.5942 71.7325 65.7702C73.2689 64.948 74.9955 64.535 76.916 64.535C78.5307 64.535 79.9907 64.8178 81.2941 65.3832C82.6011 65.9487 83.6975 66.7653 84.5832 67.8312L81.8161 70.3832C80.552 68.9305 78.9894 68.2032 77.1248 68.2032C75.9707 68.2032 74.9414 68.4562 74.0371 68.9621C73.1309 69.4643 72.4261 70.1675 71.9189 71.0752C71.4118 71.9792 71.1582 73.006 71.1582 74.1556C71.1582 75.307 71.4118 76.3338 71.9189 77.2359C72.4261 78.1399 73.1309 78.8431 74.0371 79.349C74.9414 79.855 75.9707 80.108 77.1248 80.108C78.9894 80.108 80.552 79.3713 81.8161 77.8981L84.5832 80.4502C83.6975 81.5328 82.5955 82.3587 81.2791 82.9279C79.9665 83.4934 78.5009 83.7761 76.8862 83.7761Z" fill="white"/>
<path d="M91.7542 83.672C90.242 83.672 88.8865 83.3576 87.6894 82.727C86.4905 82.0983 85.5526 81.2241 84.8776 80.108C84.2008 78.9919 83.8633 77.7252 83.8633 76.3059C83.8633 74.8885 84.2008 73.6199 84.8776 72.5038C85.5526 71.3877 86.4905 70.5172 87.6894 69.8922C88.8865 69.2635 90.242 68.9473 91.7542 68.9473C93.2608 68.9473 94.607 69.2635 95.7966 69.8922C96.9899 70.5172 97.9222 71.3877 98.5935 72.5038C99.2685 73.6199 99.6078 74.8885 99.6078 76.3059C99.6078 77.7252 99.2685 78.9919 98.5935 80.108C97.9222 81.2241 96.9899 82.0983 95.7966 82.727C94.607 83.3576 93.2608 83.672 91.7542 83.672ZM91.7542 80.2642C92.817 80.2642 93.6896 79.9071 94.3721 79.1928C95.0582 78.4748 95.4013 77.5113 95.4013 76.3059C95.4013 75.1005 95.0582 74.1407 94.3721 73.4264C93.6896 72.7084 92.817 72.3476 91.7542 72.3476C90.6839 72.3476 89.8038 72.7084 89.1139 73.4264C88.4222 74.1407 88.0772 75.1005 88.0772 76.3059C88.0772 77.5113 88.4222 78.4748 89.1139 79.1928C89.8038 79.9071 90.6839 80.2642 91.7542 80.2642Z" fill="white"/>
<path d="M108.825 68.9473C110.6 68.9473 112.034 69.4793 113.129 70.5395C114.221 71.6017 114.77 73.179 114.77 75.2717V83.4562H110.615V75.9116C110.615 74.7769 110.365 73.9305 109.87 73.3743C109.372 72.8145 108.65 72.5336 107.707 72.5336C106.657 72.5336 105.822 72.8591 105.201 73.5083C104.578 74.1537 104.268 75.1136 104.268 76.3877V83.4562H100.114V69.1556H104.082V70.8297C104.634 70.2307 105.316 69.7657 106.133 69.4383C106.953 69.111 107.85 68.9473 108.825 68.9473Z" fill="white"/>
<path d="M124.969 68.9473C126.744 68.9473 128.178 69.4793 129.272 70.5395C130.365 71.6017 130.913 73.179 130.913 75.2717V83.4562H126.759V75.9116C126.759 74.7769 126.509 73.9305 126.013 73.3743C125.515 72.8145 124.793 72.5336 123.85 72.5336C122.8 72.5336 121.965 72.8591 121.344 73.5083C120.721 74.1537 120.412 75.1136 120.412 76.3877V83.4562H116.257V69.1556H120.225V70.8297C120.777 70.2307 121.46 69.7657 122.276 69.4383C123.097 69.111 123.993 68.9473 124.969 68.9473Z" fill="white"/>
<path d="M146.445 76.358C146.445 76.4138 146.417 76.7858 146.363 77.4741H135.518C135.712 78.3632 136.171 79.0645 136.898 79.5797C137.629 80.0912 138.535 80.3461 139.62 80.3461C140.366 80.3461 141.026 80.2382 141.604 80.0187C142.18 79.7955 142.717 79.4439 143.215 78.9621L145.43 81.358C144.077 82.9019 142.106 83.672 139.516 83.672C137.899 83.672 136.469 83.3576 135.227 82.727C133.984 82.0983 133.023 81.2241 132.348 80.108C131.671 78.9919 131.334 77.7252 131.334 76.3059C131.334 74.9071 131.666 73.6459 132.333 72.5187C132.999 71.3933 133.915 70.5172 135.078 69.8922C136.242 69.2635 137.541 68.9473 138.979 68.9473C140.385 68.9473 141.656 69.2505 142.79 69.855C143.927 70.4558 144.821 71.3189 145.468 72.4443C146.118 73.5659 146.445 74.8699 146.445 76.358ZM139.009 72.0797C138.069 72.0797 137.278 72.3476 136.637 72.8833C135.999 73.4153 135.609 74.1389 135.466 75.0559H142.529C142.384 74.1537 141.992 73.432 141.351 72.8907C140.713 72.3513 139.933 72.0797 139.009 72.0797Z" fill="white"/>
<path d="M153.874 83.672C152.347 83.672 150.975 83.3576 149.757 82.727C148.538 82.0983 147.587 81.2241 146.901 80.108C146.218 78.9919 145.879 77.7252 145.879 76.3059C145.879 74.8885 146.218 73.6199 146.901 72.5038C147.587 71.3877 148.538 70.5172 149.757 69.8922C150.975 69.2635 152.347 68.9473 153.874 68.9473C155.385 68.9473 156.703 69.2635 157.827 69.8922C158.955 70.5172 159.778 71.4156 160.296 72.5857L157.074 74.3118C156.328 73.0023 155.25 72.3476 153.844 72.3476C152.759 72.3476 151.862 72.7028 151.152 73.4116C150.445 74.1221 150.093 75.0857 150.093 76.3059C150.093 77.5317 150.445 78.499 151.152 79.2077C151.862 79.9127 152.759 80.2642 153.844 80.2642C155.265 80.2642 156.343 79.6095 157.074 78.2999L160.296 80.0559C159.778 81.1868 158.955 82.0723 157.827 82.7121C156.703 83.352 155.385 83.672 153.874 83.672Z" fill="white"/>
<path d="M169.673 82.7642C169.265 83.0674 168.763 83.2962 168.166 83.4488C167.57 83.5976 166.943 83.672 166.287 83.672C164.581 83.672 163.261 83.2386 162.326 82.3699C161.396 81.5031 160.932 80.2252 160.932 78.5381V72.6675H158.724V69.4756H160.932V65.9934H165.086V69.4756H168.659V72.6675H165.086V78.486C165.086 79.0868 165.239 79.5537 165.548 79.8848C165.862 80.2122 166.304 80.3758 166.876 80.3758C167.532 80.3758 168.092 80.1973 168.554 79.8401L169.673 82.7642Z" fill="white"/>
</svg>
